# xmcd
#
# Track frame offsets: 
#        150
#        16084
#        28554
#        43847
#        58918
#        74338
#        90368
#        106079
#        118471
#        131985
#        149181
#        163279
#        177287
#        194820
#
# Disc length: 2871 seconds
#
# Revision: 2
# Processed by: cddbd v1.5.2PL0 Copyright (c) Steve Scherf et al.
# Submitted via: ExactAudioCopy v0.99pb3
#
DISCID=da0b350e
DTITLE=Beverley Mitchell - Beverley Mitchell
DYEAR=2006
DGENRE=Country
TTITLE0=Heaven On Earth Down Here
TTITLE1=Rolling Down Sonora Avenue
TTITLE2=Walkin
TTITLE3=Someone Who Gets Me
TTITLE4=Dream Like We're Gonna Live Forever
TTITLE5=What Am I Doing Here
TTITLE6=Black Is Black
TTITLE7=A Girl's Just Got To Rock
TTITLE8=Nothin Bout Nothin
TTITLE9=Your Didn't Kiss Me
TTITLE10=Angel
TTITLE11=Good Girls
TTITLE12=If It Ain't True
TTITLE13=The Ones Left Behind
EXTD=YEAR: 2006
EXTT0=
EXTT1=
EXTT2=
EXTT3=
EXTT4=
EXTT5=
EXTT6=
EXTT7=
EXTT8=
EXTT9=
EXTT10=
EXTT11=
EXTT12=
EXTT13=
PLAYORDER=
